<svg xmlns="http://www.w3.org/2000/svg" viewBox="0 0 18.67 18.67"><defs><style>.cls-1{fill:#999;}</style></defs><g id="图层_2" data-name="图层 2"><g id="图层_1-2" data-name="图层 1"><path id="路径_1788" data-name="路径 1788" class="cls-1" d="M16.33,18.67h-14A2.33,2.33,0,0,1,0,16.34v-14A2.34,2.34,0,0,1,2.33,0h14a2.34,2.34,0,0,1,2.33,2.33v14a2.33,2.33,0,0,1-2.33,2.33Zm-14-17.5a1.09,1.09,0,0,0-1.16,1,.33.33,0,0,0,0,.14v14a1.1,1.1,0,0,0,1,1.17H16.34a1.1,1.1,0,0,0,1.17-1V2.33a1.1,1.1,0,0,0-1-1.16.33.33,0,0,0-.14,0ZM14,9.92H4.67a.59.59,0,1,1,0-1.17H14a.59.59,0,0,1,0,1.17ZM9.33,14.59a.56.56,0,0,1-.58-.52V4.67a.59.59,0,1,1,1.17,0V14a.55.55,0,0,1-.52.58Z"/></g></g></svg>