<svg xmlns="http://www.w3.org/2000/svg" viewBox="0 0 18.67 18.67"><defs><style>.cls-1{fill:#999;}</style></defs><g id="image_2" data-name="image 2"><g id="image_1-2" data-name="image 1"><path class="cls-1" d="M16.34,0h-14A2.34,2.34,0,0,0,0,2.33v14a2.33,2.33,0,0,0,2.33,2.33h14a2.33,2.33,0,0,0,2.33-2.33v-14A2.34,2.34,0,0,0,16.34,0Zm1.17,16.34v.14a1.1,1.1,0,0,1-1.17,1H2.19a1.1,1.1,0,0,1-1-1.17v-14a.33.33,0,0,1,0-.14,1.09,1.09,0,0,1,1.16-1H16.48a1.12,1.12,0,0,1,1,1.17Z"/><path class="cls-1" d="M14,8.75H9.92V4.67a.59.59,0,1,0-1.17,0V8.75H4.67a.59.59,0,1,0,0,1.17H8.75v4.15a.56.56,0,0,0,.59.52H9.4A.55.55,0,0,0,9.92,14V9.92H14a.59.59,0,0,0,0-1.17Z"/></g></g></svg>