<?xml version="1.0" standalone="no"?><!DOCTYPE svg PUBLIC "-//W3C//DTD SVG 1.1//EN" "http://www.w3.org/Graphics/SVG/1.1/DTD/svg11.dtd"><svg t="1650620188854" class="icon" viewBox="0 0 3698 1024" version="1.1" xmlns="http://www.w3.org/2000/svg" p-id="2600" xmlns:xlink="http://www.w3.org/1999/xlink" width="722.265625" height="200"><defs><style type="text/css"></style></defs><path d="M1416.25304499 659.13235748V162.26885595h306.81541025V242.89300054h-207.06789202v127.51465715h158.76224957v78.86479457h-158.76224957v209.85990522zM2149.749174 535.44237395a176.47049474 176.47049474 0 0 1-65.01947232 93.47505154q-48.45862993 36.4873973-119.02387798 36.44915076-86.85836474 0-142.27790162-55.76375843t-55.4195383-147.47945859q0-92.40414322 54.73109662-148.01491413t142.9663433-55.61077093q86.16992306 0 140.21257663 53.54544731T2159.96105527 453.44134742a242.63736847 242.63736847 0 0 1-2.79201319 38.55272228h-288.38047826q3.44220695 42.75986397 29.87071046 66.89356192a92.71011682 92.71011682 0 0 0 65.01947094 24.13369658q55.57252441 0 78.86479456-47.57895425zM1962.83731744 340.03973958a90.9125189 90.9125189 0 0 0-62.03622511 22.41259448q-25.51058128 22.41259449-31.43882643 62.38044665h187.4090642q-1.07090834-38.2467473-27.80538684-61.50077095a97.03199947 97.03199947 0 0 0-66.12862582-23.29227018zM2220.81163108 544.46860729a242.71386151 242.71386151 0 0 1-14.07480419-83.7221314 240.03658929 240.03658929 0 0 1 14.07480419-83.41615639A185.95568782 185.95568782 0 0 1 2259.40259989 313.26701732a172.8753003 172.8753003 0 0 1 57.37012094-40.31207229 175.24659889 175.24659889 0 0 1 70.87122303-14.41902433A167.25302736 167.25302736 0 0 1 2460.88646689 275.02026864a145.33764191 145.33764191 0 0 1 55.07531677 44.48096744v-187.40906283h101.12440017v527.04018423h-101.12440017v-58.36453759a142.62212177 142.62212177 0 0 1-52.09207093 46.73752507 159.48893777 159.48893777 0 0 1-77.14368971 17.86123129 171.91913153 171.91913153 0 0 1-127.70589119-55.91674453 192.72536213 192.72536213 0 0 1-38.20850075-64.98122443z m265.47067614 2.44779167q30.59739867-31.28584033 30.59739866-84.79303973t-30.59739866-84.79303973a103.49569878 103.49569878 0 0 0-147.51770651-0.68844166q-30.59739867 30.59739867-30.59739865 84.1428446t30.59739865 85.44323484a97.91167378 97.91167378 0 0 0 73.12778206 31.97428062 100.28297239 100.28297239 0 0 0 74.38992445-31.28583894zM2714.53889789 659.13235748V162.26885595h113.24862032l158.11205443 369.34884436 157.72958777-369.34884436h112.59842519v496.86350153h-99.86225782v-323.14677207l-133.09868215 323.14677207H2947.84405938l-133.86361689-323.14677207v323.14677207zM3354.06276769 162.26885595h99.70927032v417.99870695h163.65783431v78.86479458h-263.36710463z" fill="#3E3A39" p-id="2601"></path><path d="M700.50340767 188.92684002l-114.74024463 114.74024325-114.74024326-114.74024325a162.43393709 162.43393709 0 0 1 0-229.48048649 162.35744403 162.35744403 0 0 1 229.67172054 0 162.43393709 162.43393709 0 0 1-0.19123265 229.48048649z" fill="#6E62A3" p-id="2602"></path><path d="M1025.29478878 513.71822251a162.43393709 162.43393709 0 0 1-229.67172054 0l-114.74024323-114.74024463 114.74024323-114.74024325a162.43393709 162.43393709 0 0 1 229.67172054 0 162.35744403 162.35744403 0 0 1 0 229.48048788z" fill="#62B853" p-id="2603"></path><path d="M700.50340767 838.50960362a162.35744403 162.35744403 0 0 1-229.48048789 0 162.43393709 162.43393709 0 0 1 0-229.67172053l114.74024326-114.74024323 114.74024463 114.74024323a162.43393709 162.43393709 0 0 1 0 229.67172053z" fill="#EDB850" p-id="2604"></path><path d="M490.52876149 398.90148483l-114.74024325 114.74024325a162.43393709 162.43393709 0 0 1-229.4804865 0 162.35744403 162.35744403 0 0 1 0-229.48048651 162.43393709 162.43393709 0 0 1 229.67172052 0z" fill="#DF675C" p-id="2605"></path></svg>