<?xml version="1.0" encoding="UTF-8" standalone="no"?>
<svg
   xmlns:dc="http://purl.org/dc/elements/1.1/"
   xmlns:cc="http://creativecommons.org/ns#"
   xmlns:rdf="http://www.w3.org/1999/02/22-rdf-syntax-ns#"
   xmlns:svg="http://www.w3.org/2000/svg"
   xmlns="http://www.w3.org/2000/svg"
   xmlns:sodipodi="http://sodipodi.sourceforge.net/DTD/sodipodi-0.dtd"
   xmlns:inkscape="http://www.inkscape.org/namespaces/inkscape"
   id="svg"
   version="1.1"
   width="16.000368"
   height="16.000324"
   viewBox="0 0 16.000368 16.000324"
   sodipodi:docname="logo-icon.svg"
   inkscape:version="0.92.3 (2405546, 2018-03-11)">
  <metadata
     id="metadata13">
    <rdf:RDF>
      <cc:Work
         rdf:about="">
        <dc:format>image/svg+xml</dc:format>
        <dc:type
           rdf:resource="http://purl.org/dc/dcmitype/StillImage" />
        <dc:title></dc:title>
      </cc:Work>
    </rdf:RDF>
  </metadata>
  <defs
     id="defs11" />
  <sodipodi:namedview
     pagecolor="#ffffff"
     bordercolor="#666666"
     borderopacity="1"
     objecttolerance="10"
     gridtolerance="10"
     guidetolerance="10"
     inkscape:pageopacity="0"
     inkscape:pageshadow="2"
     inkscape:window-width="1920"
     inkscape:window-height="1028"
     id="namedview9"
     showgrid="false"
     inkscape:zoom="1.18"
     inkscape:cx="-332.80654"
     inkscape:cy="174.373"
     inkscape:window-x="0"
     inkscape:window-y="0"
     inkscape:window-maximized="1"
     inkscape:current-layer="svg" />
  <path
     style="fill:#fbfbfb;fill-rule:evenodd;stroke:none;stroke-width:0.04002797"
     inkscape:connector-curvature="0"
     d="m 8.9870586,1.7237943 c -0.0559,0.0342 -4.12188,4.09655 -4.18464,4.18093 -0.0232,0.0311 -0.0459,0.0602 -0.0504,0.0646 -0.009,0.008 -0.0748,0.14506 -0.0968,0.20014 -0.0585,0.14658 -0.058,0.44387 8.8e-4,0.59241 0.0843,0.21243 0.0883,0.21676 1.57687,1.70628 0.77946,0.77994 1.41719,1.42687 1.41719,1.4376 0,0.0232 -0.25318,0.7984797 -0.27388,0.8387097 -0.008,0.0153 -0.0143,0.0409 -0.0143,0.0568 0,0.016 -0.006,0.0359 -0.0131,0.0442 -0.007,0.008 -0.0368,0.0909 -0.0657,0.18333 -0.0289,0.0925 -0.059,0.18064 -0.0669,0.19593 -0.008,0.0153 -0.0144,0.0409 -0.0144,0.0568 0,0.016 -0.006,0.0359 -0.0131,0.0442 -0.007,0.008 -0.0368,0.0909 -0.0657,0.18333 -0.0289,0.0925 -0.059,0.18065 -0.0669,0.19594 -0.008,0.0153 -0.0144,0.0419 -0.0144,0.0591 0,0.0172 -0.007,0.0357 -0.016,0.0412 -0.009,0.005 -0.016,0.0261 -0.016,0.0458 0,0.0197 -0.006,0.0427 -0.0134,0.0511 -0.007,0.008 -0.0444,0.11247 -0.0822,0.23136 -0.0379,0.11888 -0.1511,0.46112 -0.25169,0.76053 -0.48999,1.45874 -0.46245,1.36155 -0.41361,1.45938 0.0692,0.13866 0.23128,0.19974 0.35825,0.13497 0.0706,-0.036 4.1432904,-4.09998 4.2453604,-4.23624 0.0338,-0.0452 0.091,-0.16579 0.10992,-0.23212 0.009,-0.0308 0.0243,-0.085 0.0344,-0.1203597 0.0335,-0.11668 0.007,-0.36114 -0.0566,-0.52009 -0.0598,-0.14974 -0.20138,-0.30017 -1.5675304,-1.66468 -0.77122,-0.77026 -1.40222,-1.41187 -1.40222,-1.42576 0,-0.0139 0.0282,-0.10783 0.0626,-0.20866 0.0344,-0.10083 0.0788,-0.23737 0.0986,-0.30341 0.0198,-0.066 0.0421,-0.12693 0.0495,-0.1353 0.007,-0.008 0.0135,-0.0313 0.0135,-0.0511 0,-0.0197 0.007,-0.0403 0.016,-0.0458 0.009,-0.005 0.016,-0.0271 0.016,-0.048 0,-0.021 0.007,-0.0426 0.016,-0.048 0.009,-0.005 0.016,-0.0271 0.016,-0.048 0,-0.021 0.007,-0.0426 0.016,-0.048 0.009,-0.005 0.016,-0.0271 0.016,-0.048 0,-0.021 0.007,-0.0426 0.016,-0.048 0.009,-0.005 0.016,-0.0271 0.016,-0.048 0,-0.021 0.007,-0.0426 0.016,-0.048 0.009,-0.005 0.016,-0.0271 0.016,-0.048 0,-0.021 0.007,-0.0426 0.016,-0.048 0.009,-0.005 0.016,-0.0271 0.016,-0.048 0,-0.021 0.007,-0.0426 0.016,-0.048 0.009,-0.005 0.016,-0.0271 0.016,-0.048 0,-0.021 0.007,-0.0426 0.016,-0.048 0.009,-0.005 0.016,-0.0271 0.016,-0.048 0,-0.021 0.007,-0.0426 0.016,-0.048 0.009,-0.005 0.016,-0.0271 0.016,-0.048 0,-0.021 0.007,-0.0426 0.016,-0.048 0.009,-0.005 0.016,-0.0271 0.016,-0.048 0,-0.021 0.007,-0.0426 0.016,-0.048 0.009,-0.005 0.016,-0.0271 0.016,-0.048 0,-0.021 0.007,-0.0426 0.016,-0.048 0.009,-0.005 0.016,-0.0271 0.016,-0.048 0,-0.021 0.007,-0.0426 0.016,-0.048 0.009,-0.005 0.016,-0.0271 0.016,-0.048 0,-0.021 0.007,-0.0426 0.016,-0.048 0.009,-0.005 0.016,-0.0271 0.016,-0.048 0,-0.021 0.007,-0.0426 0.016,-0.048 0.009,-0.005 0.016,-0.024 0.016,-0.0412 0,-0.0172 0.006,-0.0438 0.0144,-0.0591 0.008,-0.0153 0.1192,-0.34484 0.24733,-0.73231 0.12809,-0.38747 0.28376,-0.85391 0.34585,-1.0366 0.126,-0.37054 0.13141,-0.40949 0.0703,-0.50379 -0.0803,-0.12381 -0.25257,-0.17244 -0.36565,-0.10328"
     id="path0" />
  <path
     style="fill:#540c8c;fill-rule:evenodd;stroke:none;stroke-width:0.04002797"
     inkscape:connector-curvature="0"
     d="m 0.07714864,0.01764429 c -0.0219,0.0111 -0.0488,0.038 -0.0598,0.0598 -0.0161,0.0317 -0.0194,1.62422001 -0.0163,7.94480001 l 0.004,7.9050797 0.0365,0.0365 0.0365,0.0365 H 8.0027086 15.927369 l 0.0365,-0.0365 0.0365,-0.0365 V 8.0026643 0.07800429 l -0.0365,-0.0365 -0.0365,-0.0365 -7.9050804,-0.004 c -6.32058,-0.003 -7.91304996,2.4e-4 -7.94479996,0.0163 M 9.1940586,1.6681843 c 0.25991,0.0905 0.2752,0.21242 0.0936,0.74628 -0.44156,1.36237 -0.89855,2.68835 -1.29627,3.88811 l 1.42452,1.42232 c 1.2441504,1.24211 1.5168204,1.52354 1.5168204,1.56541 0,0.005 0.0133,0.0399 0.0295,0.0772 0.12913,0.2966 0.0877,0.6649797 -0.10331,0.9187197 -0.14146,0.18793 -4.2073404,4.22847 -4.2734704,4.24684 -0.13942,0.0387 -0.24865,-0.006 -0.34324,-0.14041 -0.0767,-0.109 -0.0698,-0.13726 0.287,-1.19464 0.34663,-1.10176 0.75901,-2.24321 1.08916,-3.2906597 0,-0.008 -0.63616,-0.65037 -1.4137,-1.42792 -1.32677,-1.3268 -1.47628,-1.48363 -1.53071,-1.60584 -0.0118,-0.0264 -0.0277,-0.0606 -0.0356,-0.0759 -0.008,-0.0153 -0.0141,-0.0409 -0.0141,-0.0568 0,-0.016 -0.008,-0.0366 -0.0168,-0.0459 -0.0225,-0.0225 -0.0225,-0.43691 0,-0.45944 0.009,-0.009 0.0168,-0.0327 0.0168,-0.052 0,-0.0363 0.0692,-0.17836 0.13041,-0.26791 0.0797,-0.1164 4.22183,-4.23768 4.25946,-4.23792 0.0205,-1.2e-4 0.048,-0.007 0.0612,-0.0158 0.0315,-0.0203 0.0442,-0.0197 0.1186,0.006"
     id="path1"
     sodipodi:nodetypes="ccscccccccccccscccccscccccccccsssscccc" />
</svg>
